<mxfile host="app.diagrams.net" modified="2023-10-12T13:55:00.887Z" agent="Mozilla/5.0 (X11; Linux x86_64; rv:109.0) Gecko/20100101 Firefox/115.0" etag="5YqKWZxNYEUBh7QFni6J" version="22.0.4" type="github">
  <diagram name="Page-1" id="noehRl39x3RuE2Dnk2nY">
    <mxGraphModel dx="1134" dy="1687" grid="1" gridSize="10" guides="1" tooltips="1" connect="1" arrows="1" fold="1" page="1" pageScale="1" pageWidth="1169" pageHeight="827" math="0" shadow="0">
      <root>
        <mxCell id="0" />
        <mxCell id="1" parent="0" />
        <mxCell id="t71gjPvIqpD4mhGg5oue-2" value="" style="verticalLabelPosition=bottom;verticalAlign=top;html=1;shape=mxgraph.basic.polygon;polyCoords=[[0.25,0],[0.75,0],[1,0.25],[1,0.75],[0.75,1],[0.25,1],[0,0.75],[0,0.25]];polyline=0;fillColor=#647687;strokeColor=#314354;fontColor=#ffffff;" vertex="1" parent="1">
          <mxGeometry x="101.41999999999999" y="-20" width="470" height="530" as="geometry" />
        </mxCell>
        <mxCell id="t71gjPvIqpD4mhGg5oue-30" style="edgeStyle=orthogonalEdgeStyle;rounded=0;orthogonalLoop=1;jettySize=auto;html=1;exitX=0;exitY=1;exitDx=0;exitDy=0;entryX=1;entryY=0;entryDx=0;entryDy=0;" edge="1" parent="1" source="t71gjPvIqpD4mhGg5oue-4" target="t71gjPvIqpD4mhGg5oue-21">
          <mxGeometry relative="1" as="geometry" />
        </mxCell>
        <mxCell id="t71gjPvIqpD4mhGg5oue-4" value="" style="ellipse;whiteSpace=wrap;html=1;aspect=fixed;fillColor=#d5e8d4;strokeColor=#82b366;" vertex="1" parent="1">
          <mxGeometry x="550" y="110" width="50" height="50" as="geometry" />
        </mxCell>
        <mxCell id="t71gjPvIqpD4mhGg5oue-5" value="REST API" style="whiteSpace=wrap;html=1;aspect=fixed;fillColor=#dae8fc;strokeColor=#6c8ebf;" vertex="1" parent="1">
          <mxGeometry x="870" y="-40" width="80" height="80" as="geometry" />
        </mxCell>
        <mxCell id="t71gjPvIqpD4mhGg5oue-12" style="edgeStyle=orthogonalEdgeStyle;rounded=0;orthogonalLoop=1;jettySize=auto;html=1;exitX=0.5;exitY=0;exitDx=0;exitDy=0;entryX=1;entryY=0.5;entryDx=0;entryDy=0;" edge="1" parent="1" source="t71gjPvIqpD4mhGg5oue-9" target="t71gjPvIqpD4mhGg5oue-10">
          <mxGeometry relative="1" as="geometry" />
        </mxCell>
        <mxCell id="t71gjPvIqpD4mhGg5oue-9" value="DB" style="whiteSpace=wrap;html=1;aspect=fixed;fillColor=#dae8fc;strokeColor=#6c8ebf;" vertex="1" parent="1">
          <mxGeometry x="860" y="280" width="80" height="80" as="geometry" />
        </mxCell>
        <mxCell id="t71gjPvIqpD4mhGg5oue-13" value="Google Talent" style="whiteSpace=wrap;html=1;aspect=fixed;fillColor=#dae8fc;strokeColor=#6c8ebf;" vertex="1" parent="1">
          <mxGeometry x="510" y="630" width="100" height="100" as="geometry" />
        </mxCell>
        <mxCell id="t71gjPvIqpD4mhGg5oue-25" style="edgeStyle=orthogonalEdgeStyle;rounded=0;orthogonalLoop=1;jettySize=auto;html=1;exitX=0;exitY=0;exitDx=0;exitDy=0;entryX=1;entryY=1;entryDx=0;entryDy=0;" edge="1" parent="1" source="t71gjPvIqpD4mhGg5oue-14" target="t71gjPvIqpD4mhGg5oue-22">
          <mxGeometry relative="1" as="geometry">
            <Array as="points">
              <mxPoint x="517" y="380" />
              <mxPoint x="379" y="380" />
            </Array>
          </mxGeometry>
        </mxCell>
        <mxCell id="t71gjPvIqpD4mhGg5oue-14" value="" style="ellipse;whiteSpace=wrap;html=1;aspect=fixed;fillColor=#d5e8d4;strokeColor=#82b366;" vertex="1" parent="1">
          <mxGeometry x="456.54" y="450" width="50" height="50" as="geometry" />
        </mxCell>
        <mxCell id="t71gjPvIqpD4mhGg5oue-24" style="edgeStyle=orthogonalEdgeStyle;rounded=0;orthogonalLoop=1;jettySize=auto;html=1;exitX=1;exitY=0;exitDx=0;exitDy=0;entryX=0;entryY=1;entryDx=0;entryDy=0;" edge="1" parent="1" source="t71gjPvIqpD4mhGg5oue-16" target="t71gjPvIqpD4mhGg5oue-22">
          <mxGeometry relative="1" as="geometry" />
        </mxCell>
        <mxCell id="t71gjPvIqpD4mhGg5oue-16" value="" style="ellipse;whiteSpace=wrap;html=1;aspect=fixed;fillColor=#d5e8d4;strokeColor=#82b366;" vertex="1" parent="1">
          <mxGeometry x="343.42" y="480" width="50" height="50" as="geometry" />
        </mxCell>
        <mxCell id="t71gjPvIqpD4mhGg5oue-17" value="OpenAI" style="whiteSpace=wrap;html=1;aspect=fixed;fillColor=#dae8fc;strokeColor=#6c8ebf;" vertex="1" parent="1">
          <mxGeometry x="324" y="630" width="100" height="100" as="geometry" />
        </mxCell>
        <mxCell id="t71gjPvIqpD4mhGg5oue-32" style="edgeStyle=orthogonalEdgeStyle;rounded=0;orthogonalLoop=1;jettySize=auto;html=1;exitX=1;exitY=0.5;exitDx=0;exitDy=0;entryX=0;entryY=0;entryDx=0;entryDy=0;" edge="1" parent="1" source="t71gjPvIqpD4mhGg5oue-19" target="t71gjPvIqpD4mhGg5oue-4">
          <mxGeometry relative="1" as="geometry" />
        </mxCell>
        <mxCell id="t71gjPvIqpD4mhGg5oue-19" value="DTO" style="ellipse;whiteSpace=wrap;html=1;aspect=fixed;fillColor=#f8cecc;strokeColor=#b85450;" vertex="1" parent="1">
          <mxGeometry x="488.40999999999997" y="74" width="40" height="40" as="geometry" />
        </mxCell>
        <mxCell id="t71gjPvIqpD4mhGg5oue-31" style="edgeStyle=orthogonalEdgeStyle;rounded=0;orthogonalLoop=1;jettySize=auto;html=1;exitX=0.5;exitY=0;exitDx=0;exitDy=0;entryX=0;entryY=0.5;entryDx=0;entryDy=0;" edge="1" parent="1" source="t71gjPvIqpD4mhGg5oue-21" target="t71gjPvIqpD4mhGg5oue-19">
          <mxGeometry relative="1" as="geometry" />
        </mxCell>
        <mxCell id="t71gjPvIqpD4mhGg5oue-33" value="" style="endArrow=classic;startArrow=classic;html=1;rounded=0;entryX=0.5;entryY=1;entryDx=0;entryDy=0;exitX=1;exitY=0.5;exitDx=0;exitDy=0;" edge="1" parent="1" source="t71gjPvIqpD4mhGg5oue-4" target="t71gjPvIqpD4mhGg5oue-5">
          <mxGeometry width="50" height="50" relative="1" as="geometry">
            <mxPoint x="450" y="240" as="sourcePoint" />
            <mxPoint x="500" y="190" as="targetPoint" />
            <Array as="points">
              <mxPoint x="910" y="130" />
            </Array>
          </mxGeometry>
        </mxCell>
        <mxCell id="t71gjPvIqpD4mhGg5oue-35" value="" style="endArrow=classic;startArrow=classic;html=1;rounded=0;exitX=0.5;exitY=0;exitDx=0;exitDy=0;entryX=0.982;entryY=0.626;entryDx=0;entryDy=0;entryPerimeter=0;" edge="1" parent="1" source="t71gjPvIqpD4mhGg5oue-13" target="t71gjPvIqpD4mhGg5oue-14">
          <mxGeometry width="50" height="50" relative="1" as="geometry">
            <mxPoint x="450" y="470" as="sourcePoint" />
            <mxPoint x="500" y="420" as="targetPoint" />
            <Array as="points">
              <mxPoint x="560" y="560" />
              <mxPoint x="610" y="560" />
              <mxPoint x="610" y="481" />
            </Array>
          </mxGeometry>
        </mxCell>
        <mxCell id="t71gjPvIqpD4mhGg5oue-36" value="" style="endArrow=classic;startArrow=classic;html=1;rounded=0;exitX=0.5;exitY=0;exitDx=0;exitDy=0;entryX=0;entryY=1;entryDx=0;entryDy=0;" edge="1" parent="1" source="t71gjPvIqpD4mhGg5oue-17" target="t71gjPvIqpD4mhGg5oue-16">
          <mxGeometry width="50" height="50" relative="1" as="geometry">
            <mxPoint x="450" y="470" as="sourcePoint" />
            <mxPoint x="300" y="510" as="targetPoint" />
            <Array as="points">
              <mxPoint x="374" y="560" />
              <mxPoint x="350" y="560" />
              <mxPoint x="350" y="540" />
            </Array>
          </mxGeometry>
        </mxCell>
        <mxCell id="t71gjPvIqpD4mhGg5oue-38" value="Route 53" style="whiteSpace=wrap;html=1;aspect=fixed;fillColor=#dae8fc;strokeColor=#6c8ebf;" vertex="1" parent="1">
          <mxGeometry x="870" y="-230" width="80" height="80" as="geometry" />
        </mxCell>
        <mxCell id="t71gjPvIqpD4mhGg5oue-40" value="" style="endArrow=classic;html=1;rounded=0;exitX=0.5;exitY=1;exitDx=0;exitDy=0;" edge="1" parent="1" source="t71gjPvIqpD4mhGg5oue-38" target="t71gjPvIqpD4mhGg5oue-5">
          <mxGeometry width="50" height="50" relative="1" as="geometry">
            <mxPoint x="680" y="50" as="sourcePoint" />
            <mxPoint x="730" as="targetPoint" />
          </mxGeometry>
        </mxCell>
        <mxCell id="t71gjPvIqpD4mhGg5oue-41" value="Navegador" style="whiteSpace=wrap;html=1;aspect=fixed;fillColor=#dae8fc;strokeColor=#6c8ebf;" vertex="1" parent="1">
          <mxGeometry x="676" y="-230" width="80" height="80" as="geometry" />
        </mxCell>
        <mxCell id="t71gjPvIqpD4mhGg5oue-42" value="" style="endArrow=classic;startArrow=classic;html=1;rounded=0;entryX=0;entryY=0.5;entryDx=0;entryDy=0;exitX=1;exitY=0.5;exitDx=0;exitDy=0;" edge="1" parent="1" source="t71gjPvIqpD4mhGg5oue-41" target="t71gjPvIqpD4mhGg5oue-38">
          <mxGeometry width="50" height="50" relative="1" as="geometry">
            <mxPoint x="610" y="40" as="sourcePoint" />
            <mxPoint x="660" y="-10" as="targetPoint" />
          </mxGeometry>
        </mxCell>
        <mxCell id="t71gjPvIqpD4mhGg5oue-43" value="" style="group" vertex="1" connectable="0" parent="1">
          <mxGeometry x="358.59000000000003" y="75" width="245.90999999999997" height="265" as="geometry" />
        </mxCell>
        <mxCell id="t71gjPvIqpD4mhGg5oue-3" value="" style="verticalLabelPosition=bottom;verticalAlign=top;html=1;shape=mxgraph.basic.polygon;polyCoords=[[0.25,0],[0.75,0],[1,0.25],[1,0.75],[0.75,1],[0.25,1],[0,0.75],[0,0.25]];polyline=0;fillColor=#eeeeee;strokeColor=#36393d;" vertex="1" parent="t71gjPvIqpD4mhGg5oue-43">
          <mxGeometry x="-121.59" y="34" width="212.83" height="240" as="geometry" />
        </mxCell>
        <mxCell id="t71gjPvIqpD4mhGg5oue-21" value="Controladores" style="ellipse;whiteSpace=wrap;html=1;aspect=fixed;fillColor=#f8cecc;strokeColor=#b85450;" vertex="1" parent="t71gjPvIqpD4mhGg5oue-43">
          <mxGeometry x="35.319999999999965" y="109" width="89" height="89" as="geometry" />
        </mxCell>
        <mxCell id="t71gjPvIqpD4mhGg5oue-22" value="Comunicacion APIs" style="ellipse;whiteSpace=wrap;html=1;aspect=fixed;fillColor=#f8cecc;strokeColor=#b85450;" vertex="1" parent="t71gjPvIqpD4mhGg5oue-43">
          <mxGeometry x="-65.17000000000004" y="199" width="100" height="100" as="geometry" />
        </mxCell>
        <mxCell id="t71gjPvIqpD4mhGg5oue-10" value="" style="ellipse;whiteSpace=wrap;html=1;aspect=fixed;fillColor=#d5e8d4;strokeColor=#82b366;" vertex="1" parent="t71gjPvIqpD4mhGg5oue-43">
          <mxGeometry x="191.40999999999997" y="128.5" width="50" height="50" as="geometry" />
        </mxCell>
        <mxCell id="t71gjPvIqpD4mhGg5oue-26" value="" style="endArrow=classic;startArrow=classic;html=1;rounded=0;exitX=1;exitY=0.5;exitDx=0;exitDy=0;entryX=0;entryY=0.5;entryDx=0;entryDy=0;" edge="1" parent="t71gjPvIqpD4mhGg5oue-43" source="t71gjPvIqpD4mhGg5oue-21" target="t71gjPvIqpD4mhGg5oue-10">
          <mxGeometry width="50" height="50" relative="1" as="geometry">
            <mxPoint x="91.40999999999997" y="205" as="sourcePoint" />
            <mxPoint x="321.40999999999997" y="160" as="targetPoint" />
          </mxGeometry>
        </mxCell>
      </root>
    </mxGraphModel>
  </diagram>
</mxfile>
